<svg width="512" height="512" viewBox="0 0 512 512" fill="none" xmlns="http://www.w3.org/2000/svg">
<path d="M90.7935 131.793C91.26 126.29 96.0972 122.231 101.598 122.728L417.759 151.274C423.26 151.77 427.341 156.634 426.874 162.137L425.796 174.852C425.33 180.355 420.492 184.414 414.992 183.917L98.8303 155.371C93.3298 154.875 89.249 150.011 89.7155 144.508L90.7935 131.793Z" fill="black"/>
<ellipse cx="256.567" cy="113.712" rx="28.7752" ry="29.696" fill="black" fill-opacity="0.85"/>
<rect width="160.403" height="20.397" rx="5" transform="matrix(-0.859071 -0.511856 0.488237 -0.872711 140.798 206.992)" fill="#8C5503"/>
<rect x="390.521" y="213.04" width="83.3488" height="36.864" rx="10" fill="black" fill-opacity="0.85"/>
<rect x="31.3268" y="213.04" width="83.3488" height="36.864" rx="10" fill="black" fill-opacity="0.85"/>
<rect x="86.8927" y="188.464" width="337.364" height="206.848" rx="10" fill="black"/>
</svg>
