<svg width="512" height="512" viewBox="0 0 512 512" fill="none" xmlns="http://www.w3.org/2000/svg">
<path d="M87.7935 133.793C88.26 128.29 93.0972 124.231 98.5977 124.728L414.759 153.274C420.26 153.77 424.341 158.634 423.874 164.137L422.796 176.852C422.33 182.355 417.492 186.414 411.992 185.917L95.8303 157.371C90.3298 156.875 86.249 152.011 86.7155 146.508L87.7935 133.793Z" fill="black"/>
<ellipse cx="253.567" cy="115.712" rx="28.7752" ry="29.696" fill="black"/>
<rect width="160.403" height="20.397" rx="5" transform="matrix(-0.859071 -0.511856 0.488237 -0.872711 137.798 208.992)" fill="#8C5503"/>
<rect x="387.521" y="215.04" width="83.3488" height="36.864" rx="10" fill="black"/>
<rect x="28.3268" y="215.04" width="83.3488" height="36.864" rx="10" fill="black"/>
<rect x="83.8927" y="190.464" width="337.364" height="206.848" rx="10" fill="black"/>
</svg>
